<svg xmlns="http://www.w3.org/2000/svg" xmlns:xlink="http://www.w3.org/1999/xlink" viewBox="0 0 80.38 27"><defs><style>.cls-1{fill:none;stroke:#666;stroke-linecap:round;stroke-linejoin:round;stroke-width:0.9px;}.cls-2{fill:url(#linear-gradient);}.cls-3{fill:url(#linear-gradient-5);}.cls-4{fill:url(#linear-gradient-6);}</style><linearGradient id="linear-gradient" x1="56.39" y1="19.6" x2="56.39" y2="3.29" gradientUnits="userSpaceOnUse"><stop offset="0.26"/><stop offset="0.43" stop-color="#242424"/><stop offset="0.69" stop-color="#565656"/><stop offset="0.89" stop-color="#747474"/><stop offset="1" stop-color="gray"/></linearGradient><linearGradient id="linear-gradient-5" x1="12.09" y1="11.81" x2="11.41" y2="35.64" gradientUnits="userSpaceOnUse"><stop offset="0" stop-color="#333" stop-opacity="0.8"/><stop offset="0.14" stop-color="#222" stop-opacity="0.87"/><stop offset="0.36" stop-color="#0f0f0f" stop-opacity="0.94"/><stop offset="0.63" stop-color="#040404" stop-opacity="0.99"/><stop offset="1"/></linearGradient><linearGradient id="linear-gradient-6" x1="3.74" y1="8.98" x2="27" y2="8.98" gradientUnits="userSpaceOnUse"><stop offset="0.18" stop-color="#ba9bc9"/><stop offset="1" stop-color="#29abe2" stop-opacity="0.7"/></linearGradient></defs><g id="Layer_2" data-name="Layer 2"><g id="Layer_1-2" data-name="Layer 1"><path d="M34.19,19.27c.05-1,.07-3.26.07-4.62V13.37c0-1.21,0-1.67-.07-2.55l-1.35-.19V9.76L37.19,8.3l.37.23.2,2.44v3.68c0,1.36,0,3.63.07,4.62Zm4.64-1v1H33v-1l2-.44h1.68Zm5.56-6.16v2.57c0,1.4,0,3.63.07,4.62H40.82c0-1,.06-3.22.06-4.62V12.34c0-1.41-.35-1.91-1.23-1.91A4,4,0,0,0,36.94,12h-.75V10.62h1.49l-.84.62C38.38,9,39.64,8.3,41.21,8.3,43.12,8.3,44.39,9.54,44.39,12.08Zm-1,5.72,2.15.44v1H39.71v-1l2-.44Z"/><path d="M50.76,13.14c.91-.27,2.47-.68,3.51-.93v.92A20.43,20.43,0,0,0,51.4,14a2.37,2.37,0,0,0-1.65,2.2c0,1.1.58,1.61,1.32,1.61.43,0,.77-.17,1.47-.69l.89-.66.23.32-.93,1C51.67,18.92,51,19.6,49.39,19.6a2.64,2.64,0,0,1-2.89-2.81C46.5,15.22,47.37,14.12,50.76,13.14Zm1.67,4.32V12c0-2-.37-2.53-1.78-2.53a7.76,7.76,0,0,0-2.06.32l1.52-.86L50,10.42c-.06,1.46-.77,2.05-1.62,2.05a1.38,1.38,0,0,1-1.48-1.1C47,9.54,48.74,8.3,51.91,8.3c2.82,0,3.93,1.19,3.93,4.14v4.93c0,.44.19.65.5.65s.41-.12.67-.49l.58.39a2.52,2.52,0,0,1-2.65,1.66A2.28,2.28,0,0,1,52.43,17.46Z"/><path d="M59.32,14.65V13.36c0-1.21,0-1.66-.07-2.54l-1.35-.19V9.76L62.24,8.3l.38.23.2,2.71v3.41c0,1.36,0,3.63.07,4.62H59.25C59.29,18.28,59.32,16,59.32,14.65Zm-1.24,3.59,2.1-.44H62.5l2.1.44v1H58.08Zm3.12-6.5h1.65l-.3.6c.39-2.7,1.92-4,3.24-4A1.83,1.83,0,0,1,67.7,9.92c0,1.14-.69,1.8-1.57,1.8a2.1,2.1,0,0,1-1.7-1l-.64-.84.89.32a5.32,5.32,0,0,0-1.87,3.05l-1.61-.16Z"/><path d="M74,17.69c1.06,0,1.8-.78,2.49-1.86l.26.36c-1.09,2.35-2.42,3.41-4.38,3.41-2.49,0-4.39-2-4.39-5.56S70.33,8.3,72.81,8.3c1.91,0,2.83,1,3.85,3l-.22.43c-.87-1-1.49-1.57-2.39-1.57-1.34,0-2.35,1.24-2.35,3.84C71.7,16.42,72.64,17.69,74,17.69Zm5.94.55v1l-4.3.25-.29-2v-7.3l.13-.24V5.43l-1.54-.22V4.28l4.65-1,.36.22-.09,3.08V19.27l-1.49-1.6Z"/><path class="cls-1" d="M34.19,19.27c.05-1,.07-3.26.07-4.62V13.37c0-1.21,0-1.67-.07-2.55l-1.35-.19V9.76L37.19,8.3l.37.23.2,2.44v3.68c0,1.36,0,3.63.07,4.62Zm4.64-1v1H33v-1l2-.44h1.68Zm5.56-6.16v2.57c0,1.4,0,3.63.07,4.62H40.82c0-1,.06-3.22.06-4.62V12.34c0-1.41-.35-1.91-1.23-1.91A4,4,0,0,0,36.94,12h-.75V10.62h1.49l-.84.62C38.38,9,39.64,8.3,41.21,8.3,43.12,8.3,44.39,9.54,44.39,12.08Zm-1,5.72,2.15.44v1H39.71v-1l2-.44Z"/><path class="cls-1" d="M50.76,13.14c.91-.27,2.47-.68,3.51-.93v.92A20.43,20.43,0,0,0,51.4,14a2.37,2.37,0,0,0-1.65,2.2c0,1.1.58,1.61,1.32,1.61.43,0,.77-.17,1.47-.69l.89-.66.23.32-.93,1C51.67,18.92,51,19.6,49.39,19.6a2.64,2.64,0,0,1-2.89-2.81C46.5,15.22,47.37,14.12,50.76,13.14Zm1.67,4.32V12c0-2-.37-2.53-1.78-2.53a7.76,7.76,0,0,0-2.06.32l1.52-.86L50,10.42c-.06,1.46-.77,2.05-1.62,2.05a1.38,1.38,0,0,1-1.48-1.1C47,9.54,48.74,8.3,51.91,8.3c2.82,0,3.93,1.19,3.93,4.14v4.93c0,.44.19.65.5.65s.41-.12.67-.49l.58.39a2.52,2.52,0,0,1-2.65,1.66A2.28,2.28,0,0,1,52.43,17.46Z"/><path class="cls-1" d="M59.32,14.65V13.36c0-1.21,0-1.66-.07-2.54l-1.35-.19V9.76L62.24,8.3l.38.23.2,2.71v3.41c0,1.36,0,3.63.07,4.62H59.25C59.29,18.28,59.32,16,59.32,14.65Zm-1.24,3.59,2.1-.44H62.5l2.1.44v1H58.08Zm3.12-6.5h1.65l-.3.6c.39-2.7,1.92-4,3.24-4A1.83,1.83,0,0,1,67.7,9.92c0,1.14-.69,1.8-1.57,1.8a2.1,2.1,0,0,1-1.7-1l-.64-.84.89.32a5.32,5.32,0,0,0-1.87,3.05l-1.61-.16Z"/><path class="cls-1" d="M74,17.69c1.06,0,1.8-.78,2.49-1.86l.26.36c-1.09,2.35-2.42,3.41-4.38,3.41-2.49,0-4.39-2-4.39-5.56S70.33,8.3,72.81,8.3c1.91,0,2.83,1,3.85,3l-.22.43c-.87-1-1.49-1.57-2.39-1.57-1.34,0-2.35,1.24-2.35,3.84C71.7,16.42,72.64,17.69,74,17.69Zm5.94.55v1l-4.3.25-.29-2v-7.3l.13-.24V5.43l-1.54-.22V4.28l4.65-1,.36.22-.09,3.08V19.27l-1.49-1.6Z"/><path class="cls-2" d="M34.19,19.27c.05-1,.07-3.26.07-4.62V13.37c0-1.21,0-1.67-.07-2.55l-1.35-.19V9.76L37.19,8.3l.37.23.2,2.44v3.68c0,1.36,0,3.63.07,4.62Zm4.64-1v1H33v-1l2-.44h1.68Zm5.56-6.16v2.57c0,1.4,0,3.63.07,4.62H40.82c0-1,.06-3.22.06-4.62V12.34c0-1.41-.35-1.91-1.23-1.91A4,4,0,0,0,36.94,12h-.75V10.62h1.49l-.84.62C38.38,9,39.64,8.3,41.21,8.3,43.12,8.3,44.39,9.54,44.39,12.08Zm-1,5.72,2.15.44v1H39.71v-1l2-.44Z"/><path class="cls-2" d="M50.76,13.14c.91-.27,2.47-.68,3.51-.93v.92A20.43,20.43,0,0,0,51.4,14a2.37,2.37,0,0,0-1.65,2.2c0,1.1.58,1.61,1.32,1.61.43,0,.77-.17,1.47-.69l.89-.66.23.32-.93,1C51.67,18.92,51,19.6,49.39,19.6a2.64,2.64,0,0,1-2.89-2.81C46.5,15.22,47.37,14.12,50.76,13.14Zm1.67,4.32V12c0-2-.37-2.53-1.78-2.53a7.76,7.76,0,0,0-2.06.32l1.52-.86L50,10.42c-.06,1.46-.77,2.05-1.62,2.05a1.38,1.38,0,0,1-1.48-1.1C47,9.54,48.74,8.3,51.91,8.3c2.82,0,3.93,1.19,3.93,4.14v4.93c0,.44.19.65.5.65s.41-.12.67-.49l.58.39a2.52,2.52,0,0,1-2.65,1.66A2.28,2.28,0,0,1,52.43,17.46Z"/><path class="cls-2" d="M59.32,14.65V13.36c0-1.21,0-1.66-.07-2.54l-1.35-.19V9.76L62.24,8.3l.38.23.2,2.71v3.41c0,1.36,0,3.63.07,4.62H59.25C59.29,18.28,59.32,16,59.32,14.65Zm-1.24,3.59,2.1-.44H62.5l2.1.44v1H58.08Zm3.12-6.5h1.65l-.3.6c.39-2.7,1.92-4,3.24-4A1.83,1.83,0,0,1,67.7,9.92c0,1.14-.69,1.8-1.57,1.8a2.1,2.1,0,0,1-1.7-1l-.64-.84.89.32a5.32,5.32,0,0,0-1.87,3.05l-1.61-.16Z"/><path class="cls-2" d="M74,17.69c1.06,0,1.8-.78,2.49-1.86l.26.36c-1.09,2.35-2.42,3.41-4.38,3.41-2.49,0-4.39-2-4.39-5.56S70.33,8.3,72.81,8.3c1.91,0,2.83,1,3.85,3l-.22.43c-.87-1-1.49-1.57-2.39-1.57-1.34,0-2.35,1.24-2.35,3.84C71.7,16.42,72.64,17.69,74,17.69Zm5.94.55v1l-4.3.25-.29-2v-7.3l.13-.24V5.43l-1.54-.22V4.28l4.65-1,.36.22-.09,3.08V19.27l-1.49-1.6Z"/><path class="cls-3" d="M23.85,22.16A13.5,13.5,0,0,1,.65,9.37a10.53,10.53,0,0,1,.46-1.22C2,8.54,2.94,9,3.85,9.38c-.13.29-.24.59-.35.91a10.5,10.5,0,0,0,18.06,9.94C22.34,20.87,23.11,21.52,23.85,22.16Z"/><path class="cls-4" d="M26.35,17.63a3.21,3.21,0,0,1-.12.33c-.83-.69-1.68-1.36-2.53-2a10.48,10.48,0,0,0-17-10.42c-1-.46-1.94-.91-2.94-1.33A13.49,13.49,0,0,1,26.35,17.63Z"/><path d="M9.11,18.82c0-1,.06-3.26.06-4.62V12.93c0-1.21,0-1.67-.06-2.55l-1.35-.2V9.31L12.1,7.85l.38.24.2,2.44V14.2c0,1.36,0,3.63.07,4.62Zm4.64-1v1H8v-1l2-.44h1.67Zm5.56-6.16V14.2c0,1.41,0,3.63.06,4.62H15.73c0-1,.07-3.21.07-4.62V11.89c0-1.41-.35-1.91-1.23-1.91a4.07,4.07,0,0,0-2.72,1.61h-.74V10.17h1.48l-.83.62c1.54-2.23,2.79-2.94,4.37-2.94C18,7.85,19.31,9.1,19.31,11.64Zm-1,5.72,2.16.44v1H14.63v-1l2-.44Z"/></g></g></svg>