<svg width="1363" height="641" viewBox="0 0 1363 641" fill="none" xmlns="http://www.w3.org/2000/svg">
<mask id="mask0_139_53" style="mask-type:luminance" maskUnits="userSpaceOnUse" x="390" y="179" width="641" height="461">
<path d="M390.265 179.771H1030.27V639.771H390.265V179.771Z" fill="white"/>
</mask>
<g mask="url(#mask0_139_53)">
<path d="M479.406 125.551L581.929 243.491" stroke="#BDBDBD" stroke-opacity="0.278431" stroke-linecap="square"/>
<path d="M512.418 287.271L328.417 176.771" stroke="#BDBDBD" stroke-opacity="0.278431" stroke-linecap="square"/>
<path d="M512.926 331.705L313.909 251.338" stroke="#BDBDBD" stroke-opacity="0.278431" stroke-linecap="square"/>
<path d="M512.64 413.851L299.185 436.286" stroke="#BDBDBD" stroke-opacity="0.278431" stroke-linecap="square"/>
<path d="M512.373 453.142L311.997 530.059" stroke="#FFBE1B" stroke-opacity="0.443137" stroke-linecap="square"/>
<path d="M511.966 492.882L334.028 612.902" stroke="#BDBDBD" stroke-opacity="0.278431" stroke-linecap="square"/>
<path d="M511.88 547.771L360.113 699.538" stroke="#BDBDBD" stroke-opacity="0.278431" stroke-linecap="square"/>
<path d="M640.262 97.0977L693.71 243.944" stroke="#BDBDBD" stroke-opacity="0.278431" stroke-linecap="square"/>
<path d="M577.212 547.374L465.646 673.229" stroke="#FB71F9" stroke-opacity="0.639216" stroke-linecap="square"/>
<path d="M577.212 547.374L465.646 673.229" stroke="#BDBDBD" stroke-opacity="0.278431" stroke-linecap="square"/>
<path d="M641.562 547.248L536.2 678.341" stroke="#BDBDBD" stroke-opacity="0.278431" stroke-linecap="square"/>
<path d="M693.797 546.757L621.964 698.832" stroke="#BDBDBD" stroke-opacity="0.278431" stroke-linecap="square"/>
<path d="M401.917 133.271L512.417 243.771" stroke="#BDBDBD" stroke-opacity="0.278431" stroke-linecap="square"/>
<path d="M941.172 125.551L838.649 243.491" stroke="#BDBDBD" stroke-opacity="0.278431" stroke-linecap="square"/>
<path d="M908.16 286.271L1135.88 149.514" stroke="#BDBDBD" stroke-opacity="0.278431" stroke-linecap="square"/>
<path d="M907.652 330.705L1156.74 230.118" stroke="#BDBDBD" stroke-opacity="0.278431" stroke-linecap="square"/>
<path d="M908.672 373.857L1162.15 333.755" stroke="#BDBDBD" stroke-opacity="0.278431" stroke-linecap="square"/>
<path d="M907.938 412.851L1156.2 438.944" stroke="#BDBDBD" stroke-opacity="0.278431" stroke-linecap="square"/>
<path d="M908.612 491.882L1148.73 653.841" stroke="#BDBDBD" stroke-opacity="0.278431" stroke-linecap="square"/>
<path d="M908.697 546.771L1060.46 698.538" stroke="#BDBDBD" stroke-opacity="0.278431" stroke-linecap="square"/>
<path d="M780.316 96.0977L726.868 242.944" stroke="#BDBDBD" stroke-opacity="0.278431" stroke-linecap="square"/>
<path d="M735.311 547.69L765.562 701.004" stroke="#DF9393" stroke-linecap="square"/>
<path d="M789.957 547L843.345 693.867" stroke="#BDBDBD" stroke-opacity="0.278431" stroke-linecap="square"/>
<path d="M843.118 547L931.391 675.95" stroke="#BDBDBD" stroke-opacity="0.278431" stroke-linecap="square"/>
<path d="M857.816 111.258L775.005 243.784" stroke="#BDBDBD" stroke-opacity="0.278431" stroke-linecap="square"/>
<path d="M512.265 243.771H908.265" stroke="#BDBDBD" stroke-opacity="0.333333" stroke-linecap="square"/>
<path d="M512.265 546.771H908.265" stroke="#BDBDBD" stroke-opacity="0.333333" stroke-linecap="square"/>
<path d="M512.265 243.771V546.771" stroke="#BDBDBD" stroke-opacity="0.333333" stroke-linecap="square"/>
<path d="M908.265 243.771V546.771" stroke="#BDBDBD" stroke-opacity="0.333333" stroke-linecap="square"/>
</g>
<path d="M512.259 375.309L0 294.267" stroke="url(#paint0_linear_139_53)" stroke-linecap="square"/>
<path d="M1362.03 611.526L908.995 450.016" stroke="url(#paint1_linear_139_53)" stroke-linecap="square"/>
<path d="M492.565 -0.000259399L644.265 242.771" stroke="#6AB6F9" stroke-opacity="0.415686" stroke-linecap="square"/>
<path d="M1051.67 99.1314L908.869 243.411" stroke="url(#paint2_linear_139_53)" stroke-linecap="square"/>
<defs>
<linearGradient id="paint0_linear_139_53" x1="-86.5" y1="267" x2="-65.222" y2="423.033" gradientUnits="userSpaceOnUse">
<stop stop-color="white" stop-opacity="0"/>
<stop offset="1" stop-color="#63D95D" stop-opacity="0.823529"/>
</linearGradient>
<linearGradient id="paint1_linear_139_53" x1="1096" y1="515.5" x2="1123.71" y2="680.704" gradientUnits="userSpaceOnUse">
<stop stop-color="#6AB6F9" stop-opacity="0.713726"/>
<stop offset="1" stop-color="white" stop-opacity="0"/>
</linearGradient>
<linearGradient id="paint2_linear_139_53" x1="1052" y1="102" x2="916.247" y2="250.62" gradientUnits="userSpaceOnUse">
<stop stop-color="white"/>
<stop offset="1" stop-color="#DF9393" stop-opacity="0.709804"/>
</linearGradient>
</defs>
</svg>
